<mxfile host="app.diagrams.net" modified="2024-06-08T19:41:05.116Z" agent="Mozilla/5.0 (Macintosh; Intel Mac OS X 10_15_7) AppleWebKit/537.36 (KHTML, like Gecko) Chrome/125.0.0.0 Safari/537.36" etag="usN9lZj-vQsrzAwPdKhX" version="24.5.2" type="device">
  <diagram name="Page-1" id="Z20--zeavIVaoUSnCwqD">
    <mxGraphModel dx="2448" dy="518" grid="1" gridSize="10" guides="1" tooltips="1" connect="1" arrows="1" fold="1" page="1" pageScale="1" pageWidth="850" pageHeight="1100" math="0" shadow="0">
      <root>
        <mxCell id="0" />
        <mxCell id="1" parent="0" />
        <mxCell id="d4KTNA2loBOGObmmP9hy-1" value="" style="edgeStyle=orthogonalEdgeStyle;rounded=0;orthogonalLoop=1;jettySize=auto;html=1;" edge="1" parent="1" source="d4KTNA2loBOGObmmP9hy-2" target="d4KTNA2loBOGObmmP9hy-4">
          <mxGeometry relative="1" as="geometry" />
        </mxCell>
        <mxCell id="d4KTNA2loBOGObmmP9hy-2" value="" style="html=1;verticalLabelPosition=bottom;align=center;labelBackgroundColor=#ffffff;verticalAlign=top;strokeWidth=2;strokeColor=#0080F0;shadow=0;dashed=0;shape=mxgraph.ios7.icons.user;" vertex="1" parent="1">
          <mxGeometry x="49" y="1530" width="60" height="60" as="geometry" />
        </mxCell>
        <mxCell id="d4KTNA2loBOGObmmP9hy-3" value="" style="edgeStyle=orthogonalEdgeStyle;rounded=0;orthogonalLoop=1;jettySize=auto;html=1;" edge="1" parent="1" source="d4KTNA2loBOGObmmP9hy-4" target="d4KTNA2loBOGObmmP9hy-8">
          <mxGeometry relative="1" as="geometry" />
        </mxCell>
        <mxCell id="d4KTNA2loBOGObmmP9hy-4" value="" style="sketch=0;points=[[0,0,0],[0.25,0,0],[0.5,0,0],[0.75,0,0],[1,0,0],[0,1,0],[0.25,1,0],[0.5,1,0],[0.75,1,0],[1,1,0],[0,0.25,0],[0,0.5,0],[0,0.75,0],[1,0.25,0],[1,0.5,0],[1,0.75,0]];outlineConnect=0;fontColor=#232F3E;fillColor=#E7157B;strokeColor=#ffffff;dashed=0;verticalLabelPosition=bottom;verticalAlign=top;align=center;html=1;fontSize=12;fontStyle=0;aspect=fixed;shape=mxgraph.aws4.resourceIcon;resIcon=mxgraph.aws4.api_gateway;" vertex="1" parent="1">
          <mxGeometry x="179" y="1530" width="60" height="60" as="geometry" />
        </mxCell>
        <mxCell id="d4KTNA2loBOGObmmP9hy-5" value="" style="edgeStyle=orthogonalEdgeStyle;rounded=0;orthogonalLoop=1;jettySize=auto;html=1;" edge="1" parent="1" source="d4KTNA2loBOGObmmP9hy-8" target="d4KTNA2loBOGObmmP9hy-9">
          <mxGeometry relative="1" as="geometry" />
        </mxCell>
        <mxCell id="d4KTNA2loBOGObmmP9hy-6" value="" style="edgeStyle=orthogonalEdgeStyle;rounded=0;orthogonalLoop=1;jettySize=auto;html=1;" edge="1" parent="1" source="d4KTNA2loBOGObmmP9hy-8" target="d4KTNA2loBOGObmmP9hy-10">
          <mxGeometry relative="1" as="geometry" />
        </mxCell>
        <mxCell id="d4KTNA2loBOGObmmP9hy-7" value="" style="edgeStyle=orthogonalEdgeStyle;rounded=0;orthogonalLoop=1;jettySize=auto;html=1;" edge="1" parent="1" source="d4KTNA2loBOGObmmP9hy-8">
          <mxGeometry relative="1" as="geometry">
            <mxPoint x="414" y="1560" as="targetPoint" />
          </mxGeometry>
        </mxCell>
        <mxCell id="d4KTNA2loBOGObmmP9hy-8" value="" style="outlineConnect=0;dashed=0;verticalLabelPosition=bottom;verticalAlign=top;align=center;html=1;shape=mxgraph.aws3.lambda_function;fillColor=#F58534;gradientColor=none;" vertex="1" parent="1">
          <mxGeometry x="309" y="1530" width="60" height="60" as="geometry" />
        </mxCell>
        <mxCell id="d4KTNA2loBOGObmmP9hy-9" value="" style="outlineConnect=0;dashed=0;verticalLabelPosition=bottom;verticalAlign=top;align=center;html=1;shape=mxgraph.aws3.dynamo_db;fillColor=#2E73B8;gradientColor=none;" vertex="1" parent="1">
          <mxGeometry x="303" y="1640" width="72" height="81" as="geometry" />
        </mxCell>
        <mxCell id="d4KTNA2loBOGObmmP9hy-10" value="" style="sketch=0;outlineConnect=0;fontColor=#232F3E;gradientColor=none;fillColor=#7AA116;strokeColor=none;dashed=0;verticalLabelPosition=bottom;verticalAlign=top;align=center;html=1;fontSize=12;fontStyle=0;aspect=fixed;pointerEvents=1;shape=mxgraph.aws4.bucket_with_objects;" vertex="1" parent="1">
          <mxGeometry x="310.15000000000003" y="1420" width="57.69" height="60" as="geometry" />
        </mxCell>
        <mxCell id="d4KTNA2loBOGObmmP9hy-11" value="" style="edgeStyle=orthogonalEdgeStyle;rounded=0;orthogonalLoop=1;jettySize=auto;html=1;" edge="1" parent="1" source="d4KTNA2loBOGObmmP9hy-12" target="d4KTNA2loBOGObmmP9hy-14">
          <mxGeometry relative="1" as="geometry" />
        </mxCell>
        <mxCell id="d4KTNA2loBOGObmmP9hy-12" value="" style="sketch=0;points=[[0,0,0],[0.25,0,0],[0.5,0,0],[0.75,0,0],[1,0,0],[0,1,0],[0.25,1,0],[0.5,1,0],[0.75,1,0],[1,1,0],[0,0.25,0],[0,0.5,0],[0,0.75,0],[1,0.25,0],[1,0.5,0],[1,0.75,0]];outlineConnect=0;fontColor=#232F3E;fillColor=#E7157B;strokeColor=#ffffff;dashed=0;verticalLabelPosition=bottom;verticalAlign=top;align=center;html=1;fontSize=12;fontStyle=0;aspect=fixed;shape=mxgraph.aws4.resourceIcon;resIcon=mxgraph.aws4.sqs;" vertex="1" parent="1">
          <mxGeometry x="414" y="1530" width="59" height="59" as="geometry" />
        </mxCell>
        <mxCell id="d4KTNA2loBOGObmmP9hy-13" value="" style="edgeStyle=orthogonalEdgeStyle;rounded=0;orthogonalLoop=1;jettySize=auto;html=1;" edge="1" parent="1" source="d4KTNA2loBOGObmmP9hy-14" target="d4KTNA2loBOGObmmP9hy-16">
          <mxGeometry relative="1" as="geometry" />
        </mxCell>
        <mxCell id="d4KTNA2loBOGObmmP9hy-14" value="" style="outlineConnect=0;dashed=0;verticalLabelPosition=bottom;verticalAlign=top;align=center;html=1;shape=mxgraph.aws3.lambda_function;fillColor=#F58534;gradientColor=none;" vertex="1" parent="1">
          <mxGeometry x="519" y="1530" width="60" height="60" as="geometry" />
        </mxCell>
        <mxCell id="d4KTNA2loBOGObmmP9hy-15" value="" style="sketch=0;outlineConnect=0;fontColor=#232F3E;gradientColor=none;fillColor=#7AA116;strokeColor=none;dashed=0;verticalLabelPosition=bottom;verticalAlign=top;align=center;html=1;fontSize=12;fontStyle=0;aspect=fixed;pointerEvents=1;shape=mxgraph.aws4.bucket_with_objects;" vertex="1" parent="1">
          <mxGeometry x="619" y="1440" width="57.69" height="60" as="geometry" />
        </mxCell>
        <mxCell id="d4KTNA2loBOGObmmP9hy-16" value="" style="sketch=0;outlineConnect=0;fontColor=#232F3E;gradientColor=none;fillColor=#7AA116;strokeColor=none;dashed=0;verticalLabelPosition=bottom;verticalAlign=top;align=center;html=1;fontSize=12;fontStyle=0;aspect=fixed;pointerEvents=1;shape=mxgraph.aws4.bucket_with_objects;" vertex="1" parent="1">
          <mxGeometry x="619" y="1529.5" width="57.69" height="60" as="geometry" />
        </mxCell>
        <mxCell id="d4KTNA2loBOGObmmP9hy-17" value="" style="sketch=0;outlineConnect=0;fontColor=#232F3E;gradientColor=none;fillColor=#7AA116;strokeColor=none;dashed=0;verticalLabelPosition=bottom;verticalAlign=top;align=center;html=1;fontSize=12;fontStyle=0;aspect=fixed;pointerEvents=1;shape=mxgraph.aws4.bucket_with_objects;" vertex="1" parent="1">
          <mxGeometry x="619" y="1620" width="57.69" height="60" as="geometry" />
        </mxCell>
        <mxCell id="d4KTNA2loBOGObmmP9hy-18" value="" style="edgeStyle=none;orthogonalLoop=1;jettySize=auto;html=1;rounded=0;exitX=0.5;exitY=0;exitDx=0;exitDy=0;exitPerimeter=0;" edge="1" parent="1" source="d4KTNA2loBOGObmmP9hy-14" target="d4KTNA2loBOGObmmP9hy-15">
          <mxGeometry width="100" relative="1" as="geometry">
            <mxPoint x="479" y="1460" as="sourcePoint" />
            <mxPoint x="579" y="1460" as="targetPoint" />
            <Array as="points">
              <mxPoint x="549" y="1470" />
            </Array>
          </mxGeometry>
        </mxCell>
        <mxCell id="d4KTNA2loBOGObmmP9hy-19" value="" style="edgeStyle=none;orthogonalLoop=1;jettySize=auto;html=1;rounded=0;exitX=0.5;exitY=1;exitDx=0;exitDy=0;exitPerimeter=0;" edge="1" parent="1" source="d4KTNA2loBOGObmmP9hy-14" target="d4KTNA2loBOGObmmP9hy-17">
          <mxGeometry width="100" relative="1" as="geometry">
            <mxPoint x="509" y="1640" as="sourcePoint" />
            <mxPoint x="609" y="1640" as="targetPoint" />
            <Array as="points">
              <mxPoint x="549" y="1650" />
            </Array>
          </mxGeometry>
        </mxCell>
        <mxCell id="d4KTNA2loBOGObmmP9hy-20" value="" style="edgeStyle=none;orthogonalLoop=1;jettySize=auto;html=1;rounded=0;entryX=1;entryY=0.5;entryDx=0;entryDy=0;entryPerimeter=0;exitX=0.145;exitY=0.855;exitDx=0;exitDy=0;exitPerimeter=0;" edge="1" parent="1" source="d4KTNA2loBOGObmmP9hy-14" target="d4KTNA2loBOGObmmP9hy-9">
          <mxGeometry width="100" relative="1" as="geometry">
            <mxPoint x="519" y="1580" as="sourcePoint" />
            <mxPoint x="485.25" y="1690" as="targetPoint" />
            <Array as="points" />
          </mxGeometry>
        </mxCell>
        <mxCell id="d4KTNA2loBOGObmmP9hy-21" value="Client" style="text;html=1;align=center;verticalAlign=middle;resizable=0;points=[];autosize=1;strokeColor=none;fillColor=none;" vertex="1" parent="1">
          <mxGeometry x="54" y="1600" width="50" height="30" as="geometry" />
        </mxCell>
        <mxCell id="d4KTNA2loBOGObmmP9hy-22" value="API Gateway" style="text;html=1;align=center;verticalAlign=middle;resizable=0;points=[];autosize=1;strokeColor=none;fillColor=none;" vertex="1" parent="1">
          <mxGeometry x="164" y="1600" width="90" height="30" as="geometry" />
        </mxCell>
        <mxCell id="d4KTNA2loBOGObmmP9hy-23" value="Original image&lt;div&gt;bucket&lt;/div&gt;" style="text;html=1;align=center;verticalAlign=middle;resizable=0;points=[];autosize=1;strokeColor=none;fillColor=none;" vertex="1" parent="1">
          <mxGeometry x="203" y="1430" width="100" height="40" as="geometry" />
        </mxCell>
        <mxCell id="d4KTNA2loBOGObmmP9hy-24" value="lambda&lt;div&gt;main&lt;/div&gt;" style="text;html=1;align=center;verticalAlign=middle;resizable=0;points=[];autosize=1;strokeColor=none;fillColor=none;" vertex="1" parent="1">
          <mxGeometry x="259" y="1510" width="60" height="40" as="geometry" />
        </mxCell>
        <mxCell id="d4KTNA2loBOGObmmP9hy-25" value="SQS" style="text;html=1;align=center;verticalAlign=middle;resizable=0;points=[];autosize=1;strokeColor=none;fillColor=none;" vertex="1" parent="1">
          <mxGeometry x="369" y="1529.5" width="50" height="30" as="geometry" />
        </mxCell>
        <mxCell id="d4KTNA2loBOGObmmP9hy-26" value="Dynamo DB" style="text;html=1;align=center;verticalAlign=middle;resizable=0;points=[];autosize=1;strokeColor=none;fillColor=none;" vertex="1" parent="1">
          <mxGeometry x="294" y="1730" width="90" height="30" as="geometry" />
        </mxCell>
        <mxCell id="d4KTNA2loBOGObmmP9hy-27" value="Image&amp;nbsp;&lt;div&gt;processor&lt;/div&gt;" style="text;html=1;align=center;verticalAlign=middle;resizable=0;points=[];autosize=1;strokeColor=none;fillColor=none;" vertex="1" parent="1">
          <mxGeometry x="469" y="1490" width="80" height="40" as="geometry" />
        </mxCell>
        <mxCell id="d4KTNA2loBOGObmmP9hy-28" value="Low-scale level 1&lt;div&gt;bucket&lt;/div&gt;" style="text;html=1;align=center;verticalAlign=middle;resizable=0;points=[];autosize=1;strokeColor=none;fillColor=none;" vertex="1" parent="1">
          <mxGeometry x="676.69" y="1450" width="120" height="40" as="geometry" />
        </mxCell>
        <mxCell id="d4KTNA2loBOGObmmP9hy-29" value="Low-scale level 2&lt;div&gt;bucket&lt;/div&gt;" style="text;html=1;align=center;verticalAlign=middle;resizable=0;points=[];autosize=1;strokeColor=none;fillColor=none;" vertex="1" parent="1">
          <mxGeometry x="676.69" y="1540" width="120" height="40" as="geometry" />
        </mxCell>
        <mxCell id="d4KTNA2loBOGObmmP9hy-30" value="Low-scale level 3&lt;div&gt;bucket&lt;/div&gt;" style="text;html=1;align=center;verticalAlign=middle;resizable=0;points=[];autosize=1;strokeColor=none;fillColor=none;" vertex="1" parent="1">
          <mxGeometry x="681.5" y="1630" width="120" height="40" as="geometry" />
        </mxCell>
      </root>
    </mxGraphModel>
  </diagram>
</mxfile>
